# xmcd
#
# Track frame offsets: 
#        150
#        11487
#        25237
#        38262
#        49682
#        61747
#        74655
#        87627
#        99450
#        112490
#        124490
#        137502
#        148787
#        161460
#        171915
#        183645
#        195652
#
# Disc length: 2768 seconds
#
# Revision: 4
# Processed by: cddbd v1.5.1PL2 Copyright (c) Steve Scherf et al.
# Submitted via: ExactAudioCopy v0.95b4
#
DISCID=f60ace11
DTITLE=Robert Johnson - King of the Delta Blues Singers
DYEAR=1998
DGENRE=Blues
TTITLE0=Cross Road Blues
TTITLE1=Terraplane Blues
TTITLE2=Come On In My Kitchen
TTITLE3=Walkin' Blues
TTITLE4=Last Fair Deal Gone Down
TTITLE5=32-20 Blues
TTITLE6=Kind Hearted Woman Blues
TTITLE7=If I Had Possession Over Judgement Day
TTITLE8=Preachin' Blues (Up Jumped The Devil)
TTITLE9=When You Got A Good Friend
TTITLE10=Ramblin' On My Mind
TTITLE11=Stones In My Passway
TTITLE12=Traveling Riverside Blues
TTITLE13=Milkcow's Calf Blues
TTITLE14=Me And The Devil Blues
TTITLE15=Hell Hound On My Trail
TTITLE16=Traveling Riverside Blues (previously unreleased alternate ta
TTITLE16=ke)
EXTD=
EXTT0=
EXTT1=
EXTT2=
EXTT3=
EXTT4=
EXTT5=
EXTT6=
EXTT7=
EXTT8=
EXTT9=
EXTT10=
EXTT11=
EXTT12=
EXTT13=
EXTT14=
EXTT15=
EXTT16=
PLAYORDER=
